<?xml version="1.0" standalone="no"?><!DOCTYPE svg PUBLIC "-//W3C//DTD SVG 1.1//EN" "http://www.w3.org/Graphics/SVG/1.1/DTD/svg11.dtd"><svg t="1557306106398" class="icon" style="" viewBox="0 0 1024 1024" version="1.1" xmlns="http://www.w3.org/2000/svg" p-id="3391" data-spm-anchor-id="a313x.7781069.0.i1" xmlns:xlink="http://www.w3.org/1999/xlink" width="200" height="200"><defs><style type="text/css"></style></defs><path d="M113.969193 326.488913 330.251098 110.192681c66.496483-66.48318 175.286212-66.48318 241.784742 0l0 0.01535c66.48318 66.484204 66.48318 175.287235 0 241.771439C468.805734 455.222879 365.672842 560.242747 261.021364 664.890132c-36.718273 36.733623-36.718273 96.810906 0 133.529179 30.354332 30.355355 76.674287 35.625382 112.572892 15.777335l13.33368 47.170323c-66.703191 41.542138-156.12378 33.410947-213.920114-24.39562l-0.01228 0c-67.276243-67.278289-66.334801-176.409802 0.941442-243.673765C279.50432 487.747643 384.632659 382.565069 490.812957 277.666974c23.850198-23.564695 23.711028-62.521962 0-86.23606-23.728424-23.728424-62.524009-23.728424-86.25141 0L168.74575 427.246711c-33.644261 33.657564-9.574053 102.56291 15.409968 125.604696l-39.641859 39.656185c-10.872628-6.747681-21.132296-14.818497-30.544667-24.233937l0-0.014326C47.471686 501.774101 47.471686 392.973116 113.969193 326.488913z" p-id="3392" fill="#8315e7"></path><path d="M907.953496 693.567265 691.658288 909.847124c-66.485227 66.499553-175.288259 66.499553-241.772462 0l0 0c-66.496483-66.48318-66.496483-175.288259 0-241.771439C553.117978 564.831252 656.236544 459.812407 760.902348 355.161952c36.732599-36.718273 36.732599-96.80886 0-133.527133-30.354332-30.366611-76.686567-35.626405-112.574938-15.778358l-13.331633-47.167253c66.688865-41.542138 156.109454-33.412994 213.918068 24.396643l0 0.013303c67.276243 67.26294 66.332754 176.395476-0.941442 243.656369C742.419392 532.321838 637.292076 637.488039 531.109732 742.388181c-23.849174 23.563672-23.712051 62.536288 0 86.250386 23.716144 23.714098 62.525032 23.714098 86.238107 0l235.827053-235.831146c33.644261-33.655518 9.578146-102.560864-15.409968-125.620046l39.643905-39.639812c10.874675 6.747681 21.120017 14.81952 30.53034 24.232914l0.014326 0.013303C974.438723 518.279007 974.438723 627.067712 907.953496 693.567265z" p-id="3393" data-spm-anchor-id="a313x.7781069.0.i0" class="" fill="#8315e7"></path></svg>